<svg viewBox="0 0 270 270" xmlns="http://www.w3.org/2000/svg" fill-rule="evenodd" clip-rule="evenodd" stroke-linejoin="round" stroke-miterlimit="1.414">
    <path d="M111.068 124.304l35.985-12.056 11.645 34.76-35.985 12.055-11.645-34.759z" fill="#2d333a" fill-rule="nonzero"/>
    <path d="M111.068 124.304l35.985-12.056 11.645 34.76-35.985 12.055-11.645-34.759z" fill="#2d333a" fill-rule="nonzero"/>
    <path d="M258.445 98.36C230.628 5.638 190.52-15.926 97.797 11.891 5.075 39.708-16.489 79.816 11.328 172.538c27.817 92.723 67.925 114.286 160.648 86.47 92.722-27.817 114.286-67.925 86.469-160.648zm-46.793 60.162l-17.466 5.822 6.038 18.114c2.372 7.331-1.51 15.31-8.841 17.682-1.51.43-3.235.862-4.744.646-5.607-.215-10.998-3.881-12.938-9.487l-6.038-18.114-36.011 12.076 6.038 18.113c2.372 7.332-1.51 15.31-8.841 17.682-1.51.431-3.235.863-4.744.647-5.607-.216-10.998-3.881-12.938-9.488l-6.038-18.113-17.466 5.822c-1.51.431-3.235.862-4.744.647-5.607-.216-10.998-3.882-12.938-9.488-2.372-7.332 1.51-15.31 8.84-17.682l17.467-5.822-11.644-34.717-17.467 5.822c-1.509.431-3.234.862-4.744.647-5.606-.216-10.997-3.882-12.938-9.488-2.372-7.332 1.51-15.31 8.841-17.682l17.467-5.822-6.038-18.114c-2.372-7.331 1.51-15.31 8.841-17.681 7.332-2.372 15.31 1.509 17.682 8.84l6.038 18.114 36.01-12.076L132.3 67.31c-2.372-7.332 1.51-15.31 8.84-17.682 7.332-2.372 15.31 1.51 17.683 8.841l6.038 18.113 17.466-5.822c7.332-2.372 15.31 1.51 17.682 8.841 2.372 7.332-1.51 15.31-8.841 17.682l-17.466 5.822 11.644 34.717L202.81 132c7.332-2.372 15.31 1.51 17.682 8.841 2.372 7.332-1.51 15.31-8.84 17.682z" fill="#2d333a" fill-rule="nonzero"/>
</svg>
